<svg xmlns="http://www.w3.org/2000/svg" xmlns:xlink="http://www.w3.org/1999/xlink" viewBox="0 0 584.91 858.34"><defs><style>.cls-1,.cls-6,.cls-9{fill:none;}.cls-2{fill:#f8f3ff;}.cls-3{clip-path:url(#clip-path);}.cls-4{fill:#5f259e;}.cls-5{fill:#f7f2f9;}.cls-6{stroke:#5f259e;stroke-width:13px;}.cls-13,.cls-14,.cls-6,.cls-9{stroke-miterlimit:10;}.cls-14,.cls-7{fill:#fff;}.cls-8{fill:#06080c;}.cls-13,.cls-9{stroke:#06080c;}.cls-10{clip-path:url(#clip-path-2);}.cls-11{fill:#333;}.cls-12{clip-path:url(#clip-path-3);}.cls-13{stroke-width:2px;}.cls-14{stroke:#000;}</style><clipPath id="clip-path" transform="translate(6.5 8.23)"><path class="cls-1" d="M475,472.55a266.21,266.21,0,0,0,59.65-168.31c0-116.2-74.14-215.07-177.69-251.91-6.78-2.42-23.58-7.18-23.58-7.18S288.45-6,244,.6c-37.76,5.64-46.42,45.52-46.42,45.52s-10.42,3-15.22,4.6C76.36,86.22,0,186.31,0,304.24A266.52,266.52,0,0,0,82,496.91l81.55,89.33L267.38,699.93l103.8-113.69L454,495.5a270.07,270.07,0,0,0,20.86-22.84l.1-.11Z"/></clipPath><clipPath id="clip-path-2" transform="translate(6.5 8.23)"><path class="cls-1" d="M274.81,136.27s4.64-4.85,14.78-4.53,12.83,5.18,16.5,6.37l-3.88.75a26.85,26.85,0,0,1-14.67,3.24c-8.31-.65-10.57-2.59-10.57-2.59s-.36-.42-2.16,0S272.47,137.28,274.81,136.27Z"/></clipPath><clipPath id="clip-path-3" transform="translate(6.5 8.23)"><path class="cls-1" d="M250.68,136.27s-4.64-4.85-14.78-4.53-12.83,5.18-16.5,6.37l3.88.75A26.85,26.85,0,0,0,238,142.1c8.31-.65,10.58-2.59,10.58-2.59s.35-.42,2.15,0S253,137.28,250.68,136.27Z"/></clipPath></defs><g id="Layer_2" data-name="Layer 2"><g id="Layer_2-2" data-name="Layer 2"><path class="cls-2" d="M460.47,649.67c36.46-10.16,69.07-23.1,91.18-37.2,51.17-32.64,26.77-59.09-54.5-59.09s-188.63,26.45-239.8,59.09c-26.24,16.73-32.6,31.83-21.63,42.58l13.93,19.75,17.73,25.13,96.55-25.13L441,654.74c6.55-1.59,13-3.28,19.39-5l.1,0Z" transform="translate(6.5 8.23)"/><g class="cls-3"><path class="cls-4" d="M475,472.55a266.21,266.21,0,0,0,59.65-168.31c0-147.63-119.68-267.31-267.31-267.31S0,156.61,0,304.24A266.52,266.52,0,0,0,82,496.91l81.55,89.33L267.38,699.93l103.8-113.69L454,495.5a270.07,270.07,0,0,0,20.86-22.84l.1-.11Z" transform="translate(6.5 8.23)"/><path class="cls-5" d="M506.53,504.51h0c0-.3-.1-.6-.16-.89v-.08c0-.25,0-.49-.06-.74-.28-1.9-.63-3.82-1-5.67-.56-3.14-1.14-6.38-1.42-9.57a71.75,71.75,0,0,1,.32-12.32l.24-3a45.27,45.27,0,0,0-.64-13.13c-1.15-5.11-3.94-8.74-6.95-12.31-1.71-2-1.1-4.74-.46-7.6a27.14,27.14,0,0,0,.67-3.88,40.69,40.69,0,0,0-2.41-16.78c-1.07-2.92-2.2-5.86-3.3-8.7-2.1-5.44-4.27-11.08-6-16.76-3.67-11.81-6.3-24.1-8.85-36l-1-4.52c-2.18-10.13-4.79-20.83-10.33-30.35-6.13-10.54-16-19.44-30.32-27.22l-.13-.06a23,23,0,0,0-7.77-2.52c-.79-.16-1.57-.32-2.32-.49-4.05-.95-8-1.92-11.72-2.89-9.2-2.38-17.48-4.61-25.52-7.8a63.66,63.66,0,0,1-10.56-5.85,82.47,82.47,0,0,0-8.87-5.16,233.62,233.62,0,0,0-32-12c-.13-.05-.37-.17-.61-.29l-.28-.13c-.26-.31-.53-.61-.6-.68a19,19,0,0,0-3.61-2.79,21.09,21.09,0,0,0-8.38-2.61c-.8-.09-1.63-.15-2.5-.17l-1.16-8.34a62.91,62.91,0,0,0,9.43-22.47,159,159,0,0,0,2.59-26.24,38.75,38.75,0,0,0,5.45-9c1.3-2.7,2.86-5.32,4.37-7.85,1.41-2.36,2.87-4.81,4.13-7.33,6.06-12.14,7.16-21.84,3.29-28.81a14.33,14.33,0,0,0-7-6.11c2.59-3.57,5-7.21,7.12-10.85,9.35-15.87,12.06-30.75,8.29-45.51-3.56-13.93-11.08-28.23-21.75-41.34-4.84-5.94-9.28-10.09-14-13.06a66.59,66.59,0,0,0-6.44-3.44c-1.39-.68-2.83-1.38-4.2-2.13-4.26-2.34-8.48-4.92-12-7.13l-1.54-1c-1.8-1.14-3.65-2.31-5.6-3.29a30.56,30.56,0,0,0-3.76-1.62L286.84,6l-.38-.4a8.23,8.23,0,0,0-3.68-2.53,9.54,9.54,0,0,0-1.92-.34l-.19,0-.18-.11-.21-.14v0a1.66,1.66,0,0,0-.38-.15l0,0L279.3,2c-1.13-.61-2.23-1.26-3.34-1.9s-2.4-1.4-3.63-2.06C264.85-5.92,258-8,251.27-8.21c-8.57-.3-17.86,2.8-26.19,8.72a56.08,56.08,0,0,0-15.59,17c-.84,1.39-1.65,2.91-2.44,4.38-1.71,3.2-3.47,6.51-5.58,8.67-2.58,2.65-5.3,5.25-7.94,7.75-8,7.6-16.2,15.46-21.63,25.81-5,9.48-6.7,19.49-4.84,28.17a29.52,29.52,0,0,0,3.39,8.35l.07.13c.6,1.06.92,1.64,1.14,2,0,.13.08.26.11.39a7.18,7.18,0,0,1,0,.93,97.75,97.75,0,0,0,.63,22.73,45,45,0,0,0,6.94,18.78c-4.54,6.69-2.91,17.2.22,25a78.78,78.78,0,0,0,5.65,10.75c1.32,2.23,2.69,4.54,3.88,6.89l1.07,2.15c1.7,3.48,3.46,7.06,6.2,10,1.55,12.84,4.15,27.49,11.41,39.48a58.88,58.88,0,0,0-10.38-1.44l-.79-.06c-7.85-.6-18.39,1.36-22.63,8.84-14.38,2.53-25.46,9.91-30.53,20.36a301.15,301.15,0,0,0-39.74,14.3c-2.06.92-4.17,1.83-6.29,2.74-6.68,2.87-13.58,5.83-19.65,9.64-5.13,3.21-10.26,9-15.24,17.08a86.24,86.24,0,0,0-8.57,19.54,197.38,197.38,0,0,0-4.82,20.28C48,356.69,46.84,362.47,45.28,368c-1.13,4.06-2.3,8.09-3.46,12.13-2.67,9.21-5.42,18.74-7.7,28.29-1.12,4.7-2.35,9.47-3.54,14.08-2.17,8.38-4.41,17.05-6.09,25.7a256.47,256.47,0,0,0-4.81,38.1,88.12,88.12,0,0,0,.78,17.72,30.57,30.57,0,0,0,1.61,6.27c.23.59.54,1.17.83,1.74a9.22,9.22,0,0,1,1,2.31,8,8,0,0,1-.16,2.66,12.42,12.42,0,0,0-.25,2.87c.37,5.37,4,9.25,7.15,12.67q3.61,3.9,7.25,7.78l3.69,3.94,2.24,2.44A89.79,89.79,0,0,0,52,555a55.78,55.78,0,0,0,7.6,5.14l1.89,1.14c1.08.66,2.17,1.36,3.28,2.07,5,3.2,10.2,6.51,16,7.6,7.92,1.51,16.45,1.65,25.24,1.62l8.63,248.31a7.39,7.39,0,0,0,3.74,6.41c7.14,3.56,15.09,5.92,22.62,8,19.83,5.58,41.78,9.39,69.07,12,19.88,1.89,40.62,2.83,62,2.83,15.89,0,32.16-.52,48.71-1.56,29.34-1.84,53.4-5,75.72-9.91,9.45-2.09,19.47-4.46,28.85-8.48,2.47-1,3.89-4.2,3.8-6.51l-8.53-216.49c-.39-10-.52-20.2-.65-30.06,21.84,1.54,43-2.2,59.84-10.56C502.41,555.28,509.52,527.27,506.53,504.51Z" transform="translate(6.5 8.23)"/><path class="cls-6" d="M181.24,51.09C75.84,86.91,0,186.72,0,304.24A266.52,266.52,0,0,0,82,496.91l81.55,89.33L267.38,699.93l103.8-113.69L454,495.5a270.07,270.07,0,0,0,20.86-22.84l.1-.11h0a266.21,266.21,0,0,0,59.65-168.31c0-119.3-78.15-220.34-186-254.73" transform="translate(6.5 8.23)"/><path class="cls-7" d="M221.07,203s-.46,46.28-3.47,57.38-7.46,76.23,36.23,87.95S315.52,278,315.52,278s-6.91-10.89-7.65-33.93,3.55-52.5,3.55-52.5-8.05-27.91-44.49-30.42S221.07,203,221.07,203Z" transform="translate(6.5 8.23)"/><path class="cls-8" d="M219.57,203c0,5.61-.18,11.23-.35,16.84-.29,10-.65,20.05-1.58,30A63.82,63.82,0,0,1,216.15,260a47.2,47.2,0,0,0-1.08,6.25,119.18,119.18,0,0,0-.53,21.2,106.37,106.37,0,0,0,4.77,26.78c2.89,8.85,7.33,17.35,13.95,24a43.57,43.57,0,0,0,25.61,12.6,32.63,32.63,0,0,0,22.33-6.14c6.84-4.83,12.21-11.47,16.65-18.5a135,135,0,0,0,11.21-22.67,191.26,191.26,0,0,0,6.23-18.59q.73-2.62,1.38-5.26a3.36,3.36,0,0,0,0-2.62c-3.83-7.26-5.74-15.67-6.67-23.92-1.66-14.64-.52-29.66.89-44.28q.69-7.26,1.63-14.49c.11-.85.22-1.31.32-2.34a2.64,2.64,0,0,0-.15-1.32,42.06,42.06,0,0,0-7.84-13.34,49.72,49.72,0,0,0-24.68-15.49c-11-3.08-23.06-3.53-33.46,1.72-7.95,4-14.14,10.84-18.68,18.4a75.24,75.24,0,0,0-7.66,17.74c-.28,1-.56,1.93-.76,2.91-.41,1.88,2.49,2.69,2.89.8a65.65,65.65,0,0,1,10.56-23.68,41.65,41.65,0,0,1,16.31-14.14c8.49-3.91,18.1-3.61,27-1.6,13.79,3.09,26.06,11.67,32.2,24.59.17.37.34.74.5,1.11s.05.1.08.18l.23.56c.16.41.27.85.45,1.25.32.71.16-.79.06-.37a24.08,24.08,0,0,0-.33,2.41q-1.78,13.51-2.7,27.14c-.81,12.32-1.19,24.84.76,37.08,1.08,6.83,2.8,13.91,6.11,20,.14.25.28.51.43.76l-.15-1.16c-.79,3.6-1.82,7.16-2.89,10.68a173.91,173.91,0,0,1-8.92,23.5c-4.08,8.66-9,17.15-15.58,24.14-5.95,6.3-13.6,11.42-22.46,12-10.32.7-20.88-4.16-28.21-11.22-7.62-7.33-12.24-17.17-15-27.25a112.22,112.22,0,0,1-3.7-29.47c0-3.89.15-7.78.52-11.65a45.4,45.4,0,0,1,1.13-7.25,75.89,75.89,0,0,0,1.7-11.44c.52-5.67.83-11.36,1.09-17,.42-9.32.66-18.66.79-28,0-.53,0-1.07,0-1.6A1.5,1.5,0,0,0,219.57,203Z" transform="translate(6.5 8.23)"/><path class="cls-7" d="M202.56,153.59s.76-8.14-11.63-6.79-6.34,20.32,0,29.81,7.24,15.82,11.64,19.56S213,191.28,213,191.28Z" transform="translate(6.5 8.23)"/><path class="cls-8" d="M204.06,153.59a7.65,7.65,0,0,0-3.38-6.63c-2.28-1.57-5.27-1.9-8-1.8s-5.55.62-7.6,2.61c-3.69,3.57-3.16,9.59-2.14,14.14A49.42,49.42,0,0,0,190,178a93.19,93.19,0,0,1,5.8,10.61,32.53,32.53,0,0,0,4.27,7.24c1.76,2.06,4,3.37,6.79,2.48a14.18,14.18,0,0,0,6-4.46c.77-.9,1.83-1.84,1.54-3.11-.2-.88-.48-1.75-.73-2.63l-3.22-11.66c-2.11-7.6-4.1-15.25-6.32-22.82l-.12-.44a1.5,1.5,0,0,0-2.89.8l9.12,33,1.31,4.72.15-1.15a12.2,12.2,0,0,1-1,1.2,17.41,17.41,0,0,1-2.65,2.57,5.17,5.17,0,0,1-3.25,1.31c-1.17-.12-2.08-1.24-2.77-2.09-2-2.43-3.16-5.47-4.51-8.25-1.85-3.77-4.06-7.25-6.23-10.83-3.11-5.11-5.69-11.21-6.06-17.24-.13-2.24,0-4.84,1.41-6.7,1.74-2.3,5-2.44,7.62-2.34s5,.89,6.24,3a2.86,2.86,0,0,1,.34.86c.05.17.08.34.12.5s.07.53,0,.15a4.9,4.9,0,0,1,0,.94C200.9,155.51,203.9,155.5,204.06,153.59Z" transform="translate(6.5 8.23)"/><path class="cls-7" d="M194.85,158.38s-3.76-3.12-4.89,1.84,8.78,16.39,9.15,18.55" transform="translate(6.5 8.23)"/><path class="cls-8" d="M195.91,157.32a5.09,5.09,0,0,0-4.34-1.3c-2.38.61-3.4,3.53-3.15,5.75a17.64,17.64,0,0,0,2.43,6.48c1.24,2.24,2.67,4.37,4.1,6.49.63.94,1.27,1.88,1.87,2.83.23.37.45.74.66,1.12.06.11.25.57.08.14a1.93,1.93,0,0,1,.11.34c.39,1.89,3.28,1.09,2.89-.8a11,11,0,0,0-1.9-3.47c-1.15-1.74-2.34-3.45-3.46-5.21a36.11,36.11,0,0,1-3.09-5.66,12.33,12.33,0,0,1-.45-1.29c-.06-.21-.12-.41-.16-.62s-.11-.57-.09-.43a3,3,0,0,1,.41-2.27,1.51,1.51,0,0,1,.37-.47s.18,0,.12,0,.47,0,.32,0l.41.12c.17.06,0,0,0,0l.28.13.39.23c.2.13.54.41.12.06a1.54,1.54,0,0,0,2.12,0,1.5,1.5,0,0,0,0-2.12Z" transform="translate(6.5 8.23)"/><path class="cls-7" d="M324.1,148.35s-.75-8.13,11.55-6.79,6.3,20.33,0,29.82-7.19,15.82-11.56,19.56-10.35-4.89-10.35-4.89Z" transform="translate(6.5 8.23)"/><path class="cls-8" d="M325.6,148.35a5.77,5.77,0,0,1,0-.72c0-.36,0,0,0,0s0-.24.07-.36a6.33,6.33,0,0,1,.31-1.05c-.12.29.1-.2.14-.26s.16-.3.26-.45a3.64,3.64,0,0,1,.76-.86,6.49,6.49,0,0,1,2.8-1.36c2.64-.65,6.4-.71,8.74.89,1.83,1.26,2.47,3.56,2.59,5.68.33,6-2.1,12.19-4.87,17.36-1.87,3.5-4.21,6.72-6,10.25-1.58,3-2.86,6.26-4.65,9.18a11.06,11.06,0,0,1-2.76,3.32c-1.09.79-2.33.4-3.4-.23a13.84,13.84,0,0,1-3.2-2.76c-.33-.36-.85-1-1-1.22l-.3-.42.15,1.16,9.06-33,1.3-4.72a1.5,1.5,0,0,0-2.9-.79l-5.37,19.56-3.57,13-1.11,4a2.83,2.83,0,0,0-.11,2.31,16.19,16.19,0,0,0,3.82,4.18c2,1.6,4.54,3,7.11,2s4.16-3.57,5.38-5.74c1.59-2.83,2.84-5.85,4.35-8.72,1.72-3.29,3.88-6.29,5.65-9.53a51.55,51.55,0,0,0,3.57-8.13c1.65-4.83,3-10.87.88-15.76-2.35-5.3-9.18-6.1-14.22-4.79a8.15,8.15,0,0,0-6.43,7.37,4,4,0,0,0,0,.6C322.77,150.26,325.77,150.28,325.6,148.35Z" transform="translate(6.5 8.23)"/><path class="cls-7" d="M331.76,153.15s3.74-3.13,4.86,1.83-8.72,16.4-9.09,18.56" transform="translate(6.5 8.23)"/><path class="cls-8" d="M332.82,154.21c-.17.14-.3.2,0,0a5.13,5.13,0,0,1,.72-.41c-.13.06.58-.15.43-.13.09,0,.51,0,.25,0l.17,0a2.28,2.28,0,0,1,.62,1.06,6.14,6.14,0,0,1,.18.74c0-.28,0,.22,0,.32a6.83,6.83,0,0,1-.46,2.21c-1.34,4-4.05,7.52-6.35,11-.81,1.21-2,2.64-2.32,4.11-.38,1.88,2.51,2.69,2.89.8a2.76,2.76,0,0,1,.08-.27c.05-.13-.15.25,0-.07s.34-.63.52-.94c.51-.83,1.06-1.64,1.6-2.45,1.38-2.07,2.77-4.12,4-6.27a22.35,22.35,0,0,0,2.79-6.42c.45-2.24,0-5.24-2.21-6.43-1.71-.92-3.72-.14-5.11,1s.65,3.34,2.12,2.12Z" transform="translate(6.5 8.23)"/><path class="cls-7" d="M210.69,94.35s-8.27,51.16-7.34,67.38S219,212.28,225.08,218.9s9.2,13.8,17.25,14.95,42,2.59,45.74,0,26.05-22.19,30.43-44.6,1.09-41.11,0-58.66-9.43-51.77-25.25-59.54S229.74,51.1,210.69,94.35Z" transform="translate(6.5 8.23)"/><path class="cls-8" d="M209.25,94q-2.64,16.33-4.69,32.78c-1,8.09-2,16.2-2.49,24.33-.19,3.05-.35,6.12-.28,9.17a52.56,52.56,0,0,0,1.35,10.06,158.25,158.25,0,0,0,8.57,26.14c2.92,7.1,6,14.41,10.27,20.83a25.18,25.18,0,0,0,2.17,2.85c1.87,2.09,3.56,4.32,5.31,6.51,3.09,3.87,6.68,7.57,11.75,8.56a69,69,0,0,0,8.61.86q5.79.39,11.59.58c7.42.24,15,.53,22.38-.27,1.87-.2,3.93-.37,5.48-1.53a59.71,59.71,0,0,0,5.83-5.06,102.9,102.9,0,0,0,17.08-21,65,65,0,0,0,6.52-14.17,85.44,85.44,0,0,0,3.11-18.74c.95-12.14-.09-24.24-1.13-36.34-.4-4.62-.6-9.27-1.14-13.88q-.75-6.36-2.12-12.63a110.46,110.46,0,0,0-9.07-26.76c-3.39-6.68-8-13.45-15-16.75a81.59,81.59,0,0,0-35.79-7.61,58.2,58.2,0,0,0-22,4.53,48.13,48.13,0,0,0-19,15,60.1,60.1,0,0,0-7.13,12.2c-.78,1.75,1.81,3.28,2.59,1.52,3.57-8.06,8.72-15.52,15.85-20.83a47.94,47.94,0,0,1,20.31-8.56c12.61-2.24,26-.29,38,4a57.11,57.11,0,0,1,6.11,2.52A23.71,23.71,0,0,1,300,78.65c5.49,6.67,8.83,15.13,11.39,23.28a128,128,0,0,1,5.29,25.23c.49,4.75.73,9.52,1.14,14.27.49,5.69,1,11.38,1.21,17.08a145.66,145.66,0,0,1-.34,18.45,77.16,77.16,0,0,1-3.25,17.83c-3.11,9.31-8.78,17.72-15.15,25.11a111.2,111.2,0,0,1-8,8.38c-1,.94-2,1.86-3.07,2.75l-1.17,1-.23.18-.4.3-.35.22c-.22.14.3-.08-.13.05s-.83.24-1.26.33a26.91,26.91,0,0,1-3.35.41c-3.5.28-7,.33-10.51.32-7.73,0-15.47-.28-23.17-.84-3-.21-5.83-.27-8.38-1.13-4.66-1.57-7.67-6-10.57-9.71-2.21-2.8-4.29-4.9-6.07-7.82a101,101,0,0,1-4.89-9.26,195.7,195.7,0,0,1-9.85-25c-2.17-6.85-4.13-13.94-4.13-21.18a195,195,0,0,1,1.48-21c1.45-13.58,3.37-27.11,5.49-40.6l.39-2.47C212.45,92.86,209.55,92.05,209.25,94Z" transform="translate(6.5 8.23)"/><path class="cls-9" d="M257.15,211.67s6.65-3.24,12.11-1.94" transform="translate(6.5 8.23)"/><g class="cls-10"><circle class="cls-11" cx="295.44" cy="145.36" r="6.92"/><circle class="cls-8" cx="295.44" cy="145.36" r="3.05"/><circle class="cls-7" cx="293.29" cy="143.93" r="1.68"/></g><path class="cls-8" d="M270,120.09s13.37-6.47,24.81-3.45c9.13,2.41,17.36,11,17.36,11l-3.56,1.73s-12-6.15-21-5.83a40.8,40.8,0,0,0-14.89,3.13Z" transform="translate(6.5 8.23)"/><path class="cls-8" d="M275.34,136.8c2.18-2.26,5.72-3.39,8.7-3.93A23.39,23.39,0,0,1,301,135.93a23.08,23.08,0,0,0,4.9,2.9c.92.31,1.31-1.14.4-1.45a21.69,21.69,0,0,1-4.54-2.74,21.62,21.62,0,0,0-6.74-3c-5.8-1.39-12.51-.93-17.8,2a12.41,12.41,0,0,0-2.93,2.09c-.67.7.39,1.76,1.06,1.06Z" transform="translate(6.5 8.23)"/><path class="cls-8" d="M276.44,140a8,8,0,0,0,2.5,1.24,33.09,33.09,0,0,0,9.26,1.61,26.24,26.24,0,0,0,14.39-3.38c.82-.5.07-1.8-.76-1.3a24.66,24.66,0,0,1-13.19,3.2,32.42,32.42,0,0,1-8.91-1.44,11.07,11.07,0,0,1-1.82-.75c-.12-.07-.66-.45-.41-.24-.74-.62-1.8.44-1.06,1.06Z" transform="translate(6.5 8.23)"/><g class="cls-12"><circle class="cls-11" cx="243.05" cy="145.36" r="6.92"/><circle class="cls-8" cx="243.05" cy="145.36" r="3.05"/><circle class="cls-7" cx="245.2" cy="143.93" r="1.68"/></g><path class="cls-8" d="M255.54,120.09s-13.38-6.47-24.81-3.45c-9.14,2.41-17.37,11-17.37,11l3.56,1.73s12-6.15,21-5.83a40.72,40.72,0,0,1,14.89,3.13Z" transform="translate(6.5 8.23)"/><path class="cls-8" d="M251.21,135.74c-2.28-2.36-5.9-3.64-9-4.25-6-1.18-12.52-.49-17.76,2.71-1.71,1.05-3.3,2.53-5.23,3.18-.91.31-.52,1.76.4,1.45a17.79,17.79,0,0,0,4.16-2.4,21.61,21.61,0,0,1,6.16-3.05c5.59-1.62,12.33-1.28,17.51,1.51a11.21,11.21,0,0,1,2.72,1.91c.67.7,1.73-.36,1.06-1.06Z" transform="translate(6.5 8.23)"/><path class="cls-8" d="M248,139c.25-.21-.28.17-.41.24a10.62,10.62,0,0,1-1.81.75,32.49,32.49,0,0,1-8.92,1.44,24.66,24.66,0,0,1-13.19-3.2c-.82-.5-1.58.8-.75,1.3a26.18,26.18,0,0,0,14.38,3.38,34,34,0,0,0,9.17-1.57,8.41,8.41,0,0,0,2.6-1.28c.74-.62-.33-1.68-1.07-1.06Z" transform="translate(6.5 8.23)"/><path class="cls-8" d="M257.77,132.55c-.16-.38,0,0,0,.11q.13.36.24.72a23,23,0,0,1,.67,2.84,44.2,44.2,0,0,1,.41,11.2c-.07,1,1.43,1,1.5,0a46,46,0,0,0-.46-11.6,18.79,18.79,0,0,0-1.1-4c-.38-.88-1.67-.12-1.3.76Z" transform="translate(6.5 8.23)"/><path class="cls-8" d="M252.2,191.32a34.22,34.22,0,0,0,13.32,1.55c3.62-.35,8-1.14,11.1-3.13.81-.52.06-1.82-.76-1.3a13.17,13.17,0,0,1-2.62,1.19,31.88,31.88,0,0,1-8.12,1.78,33.65,33.65,0,0,1-12.52-1.53c-.92-.3-1.32,1.15-.4,1.44Z" transform="translate(6.5 8.23)"/><path class="cls-8" d="M249.61,196.63c2.8,2.92,7.55,4.21,11.39,4.75a21.58,21.58,0,0,0,10.93-.9,23.34,23.34,0,0,0,7.15-4.43,20.86,20.86,0,0,0,3.2-3.44c.57-.78-.74-1.53-1.3-.75a22.79,22.79,0,0,1-8.32,6.69c-5.8,2.73-13.27,2-18.9-.89a11.38,11.38,0,0,1-3.09-2.09c-.67-.7-1.73.36-1.06,1.06Z" transform="translate(6.5 8.23)"/><path class="cls-8" d="M279.18,159.52a17.88,17.88,0,0,0,1.57,4.71,26.76,26.76,0,0,0,7.26,9.32,33.56,33.56,0,0,0,8.24,5c.87.38,1.64-.92.75-1.3-7.24-3.11-13.75-8.79-16-16.57a10,10,0,0,1-.36-1.53c-.14-1-1.58-.55-1.45.4Z" transform="translate(6.5 8.23)"/><path class="cls-8" d="M246.18,159.66a20.62,20.62,0,0,1-1.7,4.29,28.77,28.77,0,0,1-6.86,8.79,28.29,28.29,0,0,1-7.28,4.48c-.88.39-.12,1.68.76,1.3a29.72,29.72,0,0,0,16-16.79,14.75,14.75,0,0,0,.54-1.67c.23-.94-1.21-1.34-1.44-.4Z" transform="translate(6.5 8.23)"/><path class="cls-8" d="M228.28,145.52a21.16,21.16,0,0,0,4.21.94,39.92,39.92,0,0,0,11.08-.08c1-.13.54-1.58-.4-1.45a37,37,0,0,1-10.61,0,19.15,19.15,0,0,1-3.88-.89c-.91-.33-1.3,1.12-.4,1.45Z" transform="translate(6.5 8.23)"/><path class="cls-8" d="M284.86,146.79a18,18,0,0,0,3.4.76,23.23,23.23,0,0,0,7.89-.18c1-.19.55-1.64-.4-1.45a20.52,20.52,0,0,1-10.49-.57c-.92-.32-1.31,1.13-.4,1.44Z" transform="translate(6.5 8.23)"/><path class="cls-8" d="M282.09,131.17a17.13,17.13,0,0,1,5.37-.74A26.34,26.34,0,0,1,300.64,134a.75.75,0,0,0,.76-1.3,28.07,28.07,0,0,0-13.72-3.78,19,19,0,0,0-6,.79c-.91.31-.52,1.76.4,1.45Z" transform="translate(6.5 8.23)"/><path class="cls-8" d="M244.75,130.26a26.67,26.67,0,0,0-4.7-.79,29.7,29.7,0,0,0-10.37.79.75.75,0,0,0,.4,1.45,27.62,27.62,0,0,1,14.27,0,.75.75,0,0,0,.4-1.45Z" transform="translate(6.5 8.23)"/><path class="cls-8" d="M253.66,191.15a3,3,0,0,1-3-2.62l25.51.1a3.9,3.9,0,0,1-2.69,1.58c-6.94,1.78-14.41,2.88-21.17.51" transform="translate(6.5 8.23)"/><path class="cls-7" d="M219.78,241.56s-5.62,13.18,8.62,20.53,18.95,12.57,18.95,12.57,14.1,42.2,12.86,46.65-.88,12.82-.88,12.82l19.19-59.47s23.24-12.29,27.78-17.59,1.52-15.51,1.52-15.51h3.32l2.53,18.19s46.51,11.17,63.35,24.43c7.88,6.21,41.62,14.09,52.6,16.53a3.78,3.78,0,0,1,2.91,4.28L410.6,445.67l2.26,153.38,8.85,224.64s-44,18.9-150.06,18.9S122,820.81,122,820.81L109.44,459.16,81.52,300.59s25-12.71,42.06-19.09c21.1-7.92,87-23.59,87-23.59l5.22-19.26H220Z" transform="translate(6.5 8.23)"/><path class="cls-8" d="M218.33,241.16a17.14,17.14,0,0,0,3,17.47c4.35,4.92,11.24,7.2,16.67,10.71,2.83,1.83,5.24,4.23,8,6.09.73.49-.15-.87,0,0a20.46,20.46,0,0,0,.76,2.33q1.56,4.72,3.06,9.48c2.64,8.34,5.27,16.71,7.4,25.2.65,2.61,1.74,5.71,1.53,8.45-.16,2-.81,4.7-.92,7-.1,2.07-.11,4.16,0,6.23a1.5,1.5,0,0,0,2.94.4l13.38-41.45,3.72-11.54c.54-1.68,2-4.34,2-6.13,0-.7-1.16.55,0,.25a19.39,19.39,0,0,0,3.79-2.06c4.61-2.54,9.2-5.16,13.66-8,4-2.49,9.32-5.3,11.54-9.66s1.79-10.2.45-14.81l-1.44,1.9h3.32L309.69,242l2.54,18.2a1.45,1.45,0,0,0,1,1.05A331.35,331.35,0,0,1,348,271.65c8.06,2.92,16.15,6.13,23.49,10.59,2.72,1.64,5.12,3.76,8,5.21a77.55,77.55,0,0,0,9.83,4c8.73,3,17.69,5.38,26.65,7.59q5.32,1.32,10.68,2.53c2,.45,4.54,1,4.37,3.45-.45,6.65-2.09,13.43-3.11,20l-12.73,81.63-4.87,31.27a55.51,55.51,0,0,0-1.17,9.42l.92,62.68,1.14,77.49c.13,8.32.37,16.6.7,24.91l2.74,69.41L418,767.49,420.11,821l.1,2.67.74-1.29c.73-.32-.71.27-1,.38-1.31.5-2.63,1-3.95,1.39-5.27,1.75-10.65,3.2-16,4.51-22.29,5.39-45.17,8.31-68,10.14a720.52,720.52,0,0,1-109.35.58c-24.69-1.79-49.44-5-73.46-11.14-6.27-1.6-12.5-3.42-18.6-5.6-1.74-.63-3.48-1.28-5.19-2a7.54,7.54,0,0,0-2.29-1c-.08,0-.22-.11-.3-.15l.74,1.29-.68-19.61-1.77-50.68L118.66,681,116,604.88l-2.44-70.23L111.74,482c-.26-7.51-.11-15.16-.79-22.65-.24-2.63-.89-5.28-1.35-7.89L105.29,427l-12.7-72.1-9.15-52L83,300.19l-.69,1.7c17.15-8.7,34.66-17.09,53.08-22.72,19.84-6.06,40-11.08,60.14-16.05,5.16-1.27,10.33-2.54,15.5-3.77a1.52,1.52,0,0,0,1.05-1.05l5.21-19.25-1.44,1.1H220l-1.5-1.5-.17,2.91c-.12,1.92,2.88,1.92,3,0l.17-2.91a1.51,1.51,0,0,0-1.5-1.5h-4.13a1.53,1.53,0,0,0-1.45,1.1l-5.22,19.26,1-1.05q-21.12,5-42.13,10.51c-19.9,5.2-39.72,10.44-58.59,18.73q-14.53,6.39-28.72,13.6a1.53,1.53,0,0,0-.69,1.69l6.66,37.8L99.5,411.33c2.77,15.69,5.46,31.4,8.29,47.08.07.36.16.73.2,1.1,0,0-.07-.6,0-.13,0,.78.06,1.57.08,2.35l.41,11.83,1.62,46.58,2.34,67.13L115,663.16l2.51,72.18,2,56.06,1,28.15,0,1.26a1.52,1.52,0,0,0,.74,1.3c6.66,3.32,14.07,5.45,21.19,7.46,22,6.19,44.68,9.59,67.34,11.76a704.13,704.13,0,0,0,110.6,1.31c25.09-1.56,50.25-4.35,74.83-9.79,6.34-1.4,12.66-3,18.87-4.92a48,48,0,0,0,7.75-2.68c.2-.1.43-.18.63-.26a1.48,1.48,0,0,0,.74-1.3l-1.53-38.9-3.28-83.36-3.06-77.57c-.36-9.29-.88-18.58-1-27.88l-1-67.29-1.11-74.94c0-2.42,0-4.87-.11-7.29,0-.28,0-1.24-.06-.42,0-.51.16-1,.24-1.53L416,420.64,428.9,338l4.41-28.27c.22-1.43.5-2.86.66-4.29.52-4.53-2.85-5.87-6.54-6.71s-7.12-1.65-10.67-2.53c-9-2.22-17.92-4.57-26.65-7.59a59.58,59.58,0,0,1-10.35-4.37c-2.7-1.55-5.09-3.61-7.8-5.18-14.57-8.47-31.39-13.47-47.54-18-3.44-1-6.88-1.89-10.35-2.72l1.05,1-2.54-18.19a1.5,1.5,0,0,0-1.44-1.1h-3.32a1.51,1.51,0,0,0-1.45,1.89c1.28,4.41,1.88,10.61-1.35,14.3-2.87,3.3-7.31,5.61-11,7.86-4.19,2.57-8.46,5-12.77,7.36-1.46.8-3.5,1.42-4.25,3a40.71,40.71,0,0,0-1.68,5.22l-3.4,10.53-8.58,26.58-5.47,17,2.95.4c-.26-6.44,1.53-12.5.18-18.83-1.73-8.06-4.24-16-6.68-23.83-1.72-5.54-3-11.68-5.45-17a8.57,8.57,0,0,0-2.71-2.95,82.78,82.78,0,0,0-12.11-8.11c-5.83-3.31-12.45-6.09-13.69-13.46a15,15,0,0,1,.86-8C222,240.17,219.07,239.4,218.33,241.16Z" transform="translate(6.5 8.23)"/><path class="cls-2" d="M337.53,342.51s-5.26,50.9,0,92.06,6.89,47,6.89,47l-38.12,4.61s2.94-100.94,7.54-124.81S337.53,342.51,337.53,342.51Z" transform="translate(6.5 8.23)"/><path class="cls-8" d="M336,342.51c-.57,5.46-.94,10.95-1.28,16.44-.79,12.83-1.17,25.7-1,38.56.08,7.58.35,15.17.9,22.74.56,7.74,1.53,15.42,2.54,23.11,1.36,10.32,2.73,20.65,4.4,30.93.31,1.93.64,3.86,1,5.78a8.64,8.64,0,0,0,.39,1.83s0,0,0,.06l1.45-1.9-33.36,4-4.76.58,1.5,1.5c.16-5.47.35-10.93.54-16.39Q309,450.9,309.88,432c.65-14,1.39-28,2.41-42,.42-5.79.89-11.59,1.51-17.37a91.53,91.53,0,0,1,2-13.1c1.54-6.18,4.92-12.37,11.15-14.77a16.88,16.88,0,0,1,5.95-1.17,21.21,21.21,0,0,1,2.39.08l.46.05c.45.05-.09,0,.1,0l.71.12.58.13a1.51,1.51,0,0,0,.8-2.9,20.41,20.41,0,0,0-8.2-.18,19.46,19.46,0,0,0-13.5,9.47c-3.12,5.21-4.08,11.25-4.84,17.18-.68,5.27-1.16,10.58-1.59,15.88-1.14,13.89-1.9,27.8-2.59,41.72q-1,20.06-1.71,40.13c-.25,6.85-.74,13.76-.69,20.62,0,.09,0,.19,0,.29a1.51,1.51,0,0,0,1.5,1.5l33.36-4,4.76-.58a1.52,1.52,0,0,0,1.44-1.9,57.83,57.83,0,0,1-1.08-5.7c-1.51-8.95-2.73-17.95-3.93-26.95-1-7.75-2.14-15.51-2.83-23.3-.67-7.44-1-14.92-1.21-22.39-.31-13.37,0-26.76.72-40.12.25-4.47.54-8.94.9-13.4.17-2.16.47-4.34.57-6.5a2.58,2.58,0,0,1,0-.29C339.22,340.59,336.22,340.6,336,342.51Z" transform="translate(6.5 8.23)"/><path class="cls-2" d="M319,358l-24.42,13s-7.27,52.2-15.36,69.45-10.16,25.62-10.16,25.62l46.46,4.61Z" transform="translate(6.5 8.23)"/><path class="cls-8" d="M318.24,356.71,298.86,367l-4.11,2.18c-.69.37-1.4.62-1.63,1.47a51.68,51.68,0,0,0-.86,5.84c-1.51,9.87-3.2,19.71-5.15,29.5-2.08,10.4-4.22,21-8.05,31-1.1,2.86-2.5,5.61-3.75,8.41-1.46,3.31-2.87,6.65-4.19,10a86.15,86.15,0,0,0-3.4,9.85c0,.14-.07.27-.1.41a1.51,1.51,0,0,0,1.44,1.89l15.67,1.56,25,2.48,5.79.57a1.52,1.52,0,0,0,1.5-1.5l.34-11.18.84-27,1-32.52.87-28.11c.14-4.54.51-9.14.42-13.69,0-.06,0-.13,0-.19.06-1.94-2.94-1.93-3,0l-.34,11.18-.84,27-1,32.52-.87,28.11-.29,9.27a36.17,36.17,0,0,0-.14,4.41,1.33,1.33,0,0,1,0,.2l1.5-1.5-15.67-1.55-25-2.48-5.79-.58,1.45,1.9a99.26,99.26,0,0,1,4.91-13.76c1.94-4.71,4.25-9.25,6.16-14a94.34,94.34,0,0,0,3.12-9.32c4.33-15.13,7-30.77,9.54-46.3.63-3.9,1.24-7.81,1.78-11.72l-.69.89,21.4-11.37,3-1.61C321.46,358.39,320,355.8,318.24,356.71Z" transform="translate(6.5 8.23)"/><path class="cls-2" d="M205,260s-5.33,57.8,45.48,79.58S318.62,274,318.62,274l-3.1-1-1.85-13.23s10.36-3.1,15.95,3S335.76,274,335.76,274s9.08-3.49,15.64,2.65,4.74,38.46-18.29,72.91-68.34,49.53-118.78,37.39S148.85,306.57,148,281.4s31.52-27.51,31.52-27.51.12-5.64,7.33-7.62,20.19.95,21.87,1.79,2.59,7.23,2.59,7.23l-.71,2.62Z" transform="translate(6.5 8.23)"/><path class="cls-8" d="M203.51,260a61.73,61.73,0,0,0-.1,7.93A100.08,100.08,0,0,0,206,287.42a84.21,84.21,0,0,0,9.67,24.09,71.86,71.86,0,0,0,20.86,22.15c8.14,5.59,17.8,10.31,27.82,10.86a34.39,34.39,0,0,0,20.79-5.85c6.25-4.15,11.29-9.87,15.49-16a113,113,0,0,0,10.57-20.07,165.45,165.45,0,0,0,6.26-17.93c.93-3.22,1.81-6.48,2.48-9.77,0-.15.07-.31.1-.46a1.55,1.55,0,0,0-1.05-1.85l-3.1-1,1,1-1.84-13.23-1.05,1.85c3.67-1.09,8.26-1.21,11.72.55,3.15,1.61,5.4,5,7,8.1a18.29,18.29,0,0,1,1.24,3.09c.09.32.16.64.24.95s.11.82,0,.07c.1.87.89,1.83,1.9,1.45,4.69-1.78,11.39-1.29,14.71,2.84-.21-.26.07.11.12.19s.21.32.3.49l.26.48c.1.19.21.46.2.42a17.5,17.5,0,0,1,.81,2.67,32.44,32.44,0,0,1,.64,7.09A77.47,77.47,0,0,1,350,310.2a128.09,128.09,0,0,1-10.74,26.24A110.34,110.34,0,0,1,323.74,359a88.11,88.11,0,0,1-17.64,14.75c-13.69,8.7-29.55,13.64-45.65,15.21a131.67,131.67,0,0,1-26.63-.19c-8.53-.9-17.32-2.34-25.43-5.21-12.45-4.41-22.92-12.91-31.08-23.17-8-10.08-13.91-21.82-18.31-33.89a167.32,167.32,0,0,1-8.35-33,102,102,0,0,1-1.15-12.22,21.2,21.2,0,0,1,5.74-15.57,32,32,0,0,1,12.46-7.6,51.29,51.29,0,0,1,6.07-1.75c.82-.18,1.64-.34,2.46-.49l1-.17.44-.07.34,0c-.18,0,.39-.05.55-.06l.49-.06.43,0a1.53,1.53,0,0,0,1.5-1.5c0-.09.06-.46,0-.21s.05-.26.07-.33c.06-.24.12-.47.19-.7a6.88,6.88,0,0,1,1.75-2.71c2.69-2.59,6.83-2.89,10.36-2.84a56.38,56.38,0,0,1,11.06,1.33,33.54,33.54,0,0,1,3.41.9c.32.11,0,0,.08,0,.22.21,0-.14.16.17a7.52,7.52,0,0,1,.79,1.84c.25.81.45,1.64.62,2.48a10,10,0,0,0,.31,1.65c.17.42,0-.56,0-.51s-.2.71-.24.86l-.45,1.66,1-1.05-5.59,2.1c-1.79.67-1,3.57.8,2.89l4.14-1.55c.48-.18,1-.33,1.45-.55,1-.47,1.11-1.27,1.37-2.24a6.17,6.17,0,0,0,.39-2.23c-.06-.54-.18-1.08-.29-1.61-.38-1.91-.83-4.18-2.1-5.72-.9-1.08-2.38-1.36-3.69-1.68a61.48,61.48,0,0,0-6.42-1.21c-5.18-.71-11-1.23-16,.94-3.24,1.43-6.17,4.57-6.28,8.29l1.5-1.5a46.75,46.75,0,0,0-20.2,6.31,26.2,26.2,0,0,0-11.09,12.35c-2.06,5.05-1.87,10.44-1.38,15.76a161.3,161.3,0,0,0,6.44,32.05,138.53,138.53,0,0,0,16.57,36.33c7.48,11.31,17.22,21.34,29.35,27.64,7,3.65,14.55,5.69,22.31,7.15a142.8,142.8,0,0,0,28.36,2.57c17.18-.22,34.39-3.87,49.77-11.66a92.48,92.48,0,0,0,35.71-32.07c10.22-15.65,18.28-33.7,20.42-52.42.61-5.3.88-11.11-.75-16.27a10.85,10.85,0,0,0-2.53-4.54,15.39,15.39,0,0,0-11.1-4.11,18.3,18.3,0,0,0-6,1l1.9,1.45c-.49-4.2-3.13-8.18-5.78-11.32-3.56-4.21-8.73-5.59-14.09-5.06a21.34,21.34,0,0,0-4.11.73,1.53,1.53,0,0,0-1,1.84l1.84,13.23a1.49,1.49,0,0,0,1.05,1.05l3.11,1-1.05-1.85c-.45,2.23-1,4.45-1.59,6.65-1.43,5.39-3.12,10.72-5.06,15.95a127.07,127.07,0,0,1-9,19.41,67.79,67.79,0,0,1-13.41,17A34.1,34.1,0,0,1,270,341.33c-8.79,1.11-17.26-1.91-24.91-6a69.17,69.17,0,0,1-23.45-20.25,77.47,77.47,0,0,1-11.38-23.42,94.26,94.26,0,0,1-3.68-20.27,79,79,0,0,1-.13-10.88c0-.17,0-.35,0-.52C206.68,258.08,203.68,258.09,203.51,260Z" transform="translate(6.5 8.23)"/><path class="cls-8" d="M178,260a73.93,73.93,0,0,0-4.09,18.76,78.29,78.29,0,0,0,6.1,40.6,74.13,74.13,0,0,0,18,24.19c1.43,1.29,3.56-.82,2.12-2.12a70.68,70.68,0,0,1-22.9-42.26A83,83,0,0,1,179,267a54.84,54.84,0,0,1,1.87-6.17c.7-1.8-2.2-2.58-2.89-.8Z" transform="translate(6.5 8.23)"/><path class="cls-8" d="M333.32,278c0,.6-.09,1.21-.15,1.81s-.14,1.4-.22,2.09l-.15,1.28-.09.73a1.87,1.87,0,0,1,0,.25,1.81,1.81,0,0,1,0,.26,149.43,149.43,0,0,1-3.31,16.78c-4,15.46-10.45,30.79-21,43A63.91,63.91,0,0,1,283.71,362c-1.78.71-1,3.61.79,2.9,17.38-6.9,30.17-21,38.39-37.48a135.62,135.62,0,0,0,12.4-40.52c.44-2.95.86-5.92,1-8.89.11-1.93-2.89-1.92-3,0Z" transform="translate(6.5 8.23)"/><path class="cls-8" d="M197.93,370a45.86,45.86,0,0,0,11.34,7.19,80,80,0,0,0,33,7.49,107.88,107.88,0,0,0,27.71-3.3c1.88-.46,1.09-3.36-.79-2.9-14.17,3.48-29.11,4.47-43.42,1.25a65.92,65.92,0,0,1-22.52-9.41c-.51-.35-1-.71-1.52-1.08-.13-.09-.77-.58-.37-.27l-.46-.36c-.29-.24-.59-.48-.87-.74-1.41-1.31-3.54.81-2.12,2.13Z" transform="translate(6.5 8.23)"/><path class="cls-13" d="M211.47,105.93s-5.49,21-5.49,33.44V164h-3.86s-5.65-18-3.84-32.31S211.47,105.93,211.47,105.93Z" transform="translate(6.5 8.23)"/><path class="cls-13" d="M314.61,122.6s1.64,33.37,2.52,35.71,5.17,0,5.17,0v-20.2Z" transform="translate(6.5 8.23)"/><path class="cls-13" d="M200.52,142a63.53,63.53,0,0,1,12-37.48C225.53,86.8,261,63.19,271.58,49S285.51,9.77,280,10.07,258.61-7.81,237,2.23s-22.47,26.43-30.74,34.1-28.57,24.5-31.73,42.2,5.24,18,4.67,25.68S177.83,132,185.5,142A79.27,79.27,0,0,0,200.12,157Z" transform="translate(6.5 8.23)"/><path class="cls-13" d="M244.34,65.55s41.79,18.88,56.73,39.54a165.53,165.53,0,0,1,21.48,40.73s24.13-23.91,28.08-47.22-21-61.68-35.87-68.76-25-14.92-28.81-16.23a16.32,16.32,0,0,1-6-3.54Z" transform="translate(6.5 8.23)"/><path class="cls-13" d="M207.13,166.62s18.23,30.54,28.79,34.35,16.48,3.35,16.48,3.35,20-1.32,22.41,0,13.39-1.05,20.74-9.67,20.7-19,21.58-36.36h5.17s4.53,48.11-3.84,70.11-49.55,58.06-54.14,59.41-32.52-26.72-48.5-49.18S202.12,164,202.12,164Z" transform="translate(6.5 8.23)"/><path class="cls-7" d="M233,196.45s-4.2,1.8-16.32.66-13.39-12-13.39-12,1.28,1.17,3.37,3.47C209.86,192.15,216.27,197.27,233,196.45Z" transform="translate(6.5 8.23)"/><path class="cls-7" d="M203.28,185.15s7.3,3.43,17-2.06l.56,3.94-10.44,2.06S203.78,189.59,203.28,185.15Z" transform="translate(6.5 8.23)"/><path class="cls-7" d="M305,181.78s11.47,7.36,18.76,3.47c0,0,.23.94-.67,3.44s-20.57-2.18-20.57-2.18l-1.27-3.09Z" transform="translate(6.5 8.23)"/><path class="cls-7" d="M291.8,195.91l31.92-10.25s.88,4.89-7.69,9.94C306.94,201,291.8,195.91,291.8,195.91Z" transform="translate(6.5 8.23)"/><path class="cls-8" d="M264.78,171.75s7.71-7.95,25.83,2.54,23.24,13.85,33.11,11.37c0,0-2.2,11.73-20.55,11.65s-32.12-11.05-36.28-11.05S262.74,174.17,264.78,171.75Z" transform="translate(6.5 8.23)"/><path class="cls-8" d="M262.52,171.75s-7.71-7.95-25.83,2.54-23.24,13.85-33.11,11.37c0,0,2.2,11.73,20.55,11.65s32.13-11.05,36.28-11.05S264.56,174.17,262.52,171.75Z" transform="translate(6.5 8.23)"/><path class="cls-7" d="M248.51,72.08s12.41-11.73,13.2-12.52-10.35,11.27-10.35,11.27Z" transform="translate(6.5 8.23)"/><polygon class="cls-7" points="287.74 28.17 282.62 43.88 287.23 33.12 287.74 28.17"/><path class="cls-7" d="M284.14,35.48s29.26,18,36.77,26a117.84,117.84,0,0,1,13.6,18.56s-7.68-13.66-17.76-21.52S284.14,35.48,284.14,35.48Z" transform="translate(6.5 8.23)"/><path class="cls-7" d="M279,41.46a138.74,138.74,0,0,1,18.89,13.43c8,7.06,9.11,10,9.11,10s-6.43-6.85-13.23-12.61A156.65,156.65,0,0,0,279,41.46Z" transform="translate(6.5 8.23)"/><polygon class="cls-7" points="284.15 53.22 297.93 65.62 290.07 59.59 284.15 53.22"/><path class="cls-7" d="M275.26,22.68a23.68,23.68,0,0,0-6.17-.34,25.28,25.28,0,0,0-6,1.08,15.65,15.65,0,0,0-5.29,2.89c-1.61,1.26-3.15,2.63-4.65,4.06-3,2.8-5.92,5.78-8.92,8.66-1.51,1.42-3,2.86-4.59,4.22a21.2,21.2,0,0,1-5.15,3.5,23,23,0,0,0,4.83-3.86c1.51-1.41,2.95-2.9,4.39-4.39,2.88-3,5.77-6,8.78-8.84,1.53-1.41,3.11-2.78,4.78-4.05l1.29-.92c.43-.29.91-.55,1.36-.82a11.41,11.41,0,0,1,3-1.17A23.85,23.85,0,0,1,275.26,22.68Z" transform="translate(6.5 8.23)"/><path class="cls-7" d="M274,30.28c-2.91,1.42-5.76,3-8.52,4.63s-5.49,3.39-8.12,5.26q-2,1.41-3.89,2.87l-1.85,1.53c-.61.52-1.16,1.1-1.75,1.65-2.29,2.25-4.45,4.65-6.51,7.12-4.21,4.89-8.14,10-12.2,15.07-2,2.52-4.08,5-6.21,7.48a56.35,56.35,0,0,1-6.85,6.88,63.07,63.07,0,0,0,6.49-7.18c2.05-2.5,4-5.06,6-7.63,3.94-5.14,7.87-10.28,12.05-15.24,2.1-2.47,4.29-4.87,6.64-7.14.6-.55,1.17-1.13,1.8-1.65l1.9-1.56,2-1.43,2-1.38A100.25,100.25,0,0,1,274,30.28Z" transform="translate(6.5 8.23)"/><path class="cls-8" d="M108.9,439.87c8.29,9.6,20.32,14.72,32.27,18.09a254.9,254.9,0,0,0,43.34,8q12.81,1.32,25.7,1.44a1.5,1.5,0,0,0,0-3,276.07,276.07,0,0,1-44.55-4c-7-1.22-14.07-2.69-21-4.5a98.45,98.45,0,0,1-17.34-6.06,48.92,48.92,0,0,1-16.3-12c-1.27-1.46-3.38.67-2.13,2.12Z" transform="translate(6.5 8.23)"/><path class="cls-8" d="M397.05,459.63,350.65,466a1.52,1.52,0,0,0-1,1.85,1.54,1.54,0,0,0,1.85,1.05l46.4-6.35a1.5,1.5,0,0,0,1-1.84,1.53,1.53,0,0,0-1.84-1.05Z" transform="translate(6.5 8.23)"/><path class="cls-8" d="M266,153.5V162a.75.75,0,0,0,1.5,0V153.5a.75.75,0,0,0-1.5,0Z" transform="translate(6.5 8.23)"/><path class="cls-7" d="M253.71,157a4,4,0,0,0-2.88.89,6.43,6.43,0,0,0-1.79,2.48c-1,2.41-.88,5.56,1.12,7.26a2.07,2.07,0,0,0,1.15.55,4.5,4.5,0,0,0,.89-.1,9.71,9.71,0,0,1,5,1.19c1.05.74,3,5.06,7.31,5.06a9.48,9.48,0,0,0,7.79-3.77c.71-.85,1.37-1.93,2.47-2.13a3.74,3.74,0,0,1,1.52.12l2.76.62a4.54,4.54,0,0,0,2,.15c1.34-.29,2.14-1.68,2.54-3a8.29,8.29,0,0,0-.44-6.54A6.34,6.34,0,0,0,276,157" transform="translate(6.5 8.23)"/><path class="cls-8" d="M253.71,156.21c-5.34-.37-7.67,7.47-4.77,11.17a3.28,3.28,0,0,0,2.82,1.49,9.46,9.46,0,0,1,3.66.38c1.8.57,2.42,2,3.69,3.31,3.42,3.46,8.79,3.05,12.34-.06A26.85,26.85,0,0,0,273.7,170c1.29-1.43,3.06-.6,4.7-.24a5.1,5.1,0,0,0,3.67-.05,5.24,5.24,0,0,0,2.15-2.88c1-2.7.85-6-1-8.31a7.19,7.19,0,0,0-7.41-2.27.75.75,0,0,0,.4,1.45,5.65,5.65,0,0,1,6,1.94,7.4,7.4,0,0,1,.4,7.26,2.5,2.5,0,0,1-3.13,1.56,35.87,35.87,0,0,0-3.81-.81c-2.09-.2-3,1.4-4.22,2.78-2.67,3-7.49,4.44-10.76,1.55-1-.87-1.66-2-2.54-2.91a7.19,7.19,0,0,0-4.15-1.68c-.93-.14-2.58.22-3.28-.32a4.51,4.51,0,0,1-1.52-3.35c-.14-2.63,1.47-6.21,4.54-6,1,.07,1-1.43,0-1.5Z" transform="translate(6.5 8.23)"/><path class="cls-8" d="M252.09,166.65a16.36,16.36,0,0,1,2,0l.23,0h.1a3.4,3.4,0,0,1,.46.09,3.81,3.81,0,0,1,.45.13l.12,0c-.08,0-.07,0,0,0l.24.12a.75.75,0,0,0,.75-1.3,7.94,7.94,0,0,0-4.34-.59.76.76,0,0,0-.75.75.78.78,0,0,0,.75.75Z" transform="translate(6.5 8.23)"/><path class="cls-7" d="M381.37,379.35c-1.12-5.55,8.63-45.3,32-62.53" transform="translate(6.5 8.23)"/><path class="cls-8" d="M382.82,379c-.05-.25,0,.34,0-.12,0-.21,0-.42,0-.62,0-.49,0-1,.07-1.47.07-.77.11-1.06.21-1.68s.24-1.48.39-2.22A96.73,96.73,0,0,1,386.63,361,108.81,108.81,0,0,1,401,331.89a61.27,61.27,0,0,1,13.16-13.78c1.53-1.14,0-3.74-1.52-2.59-9.54,7.08-16.55,17.08-21.85,27.6a115.25,115.25,0,0,0-10,28c-.57,2.71-1.36,5.85-.84,8.64.36,1.89,3.26,1.09,2.9-.8Z" transform="translate(6.5 8.23)"/><path class="cls-7" d="M431.18,301.46c46.47,25.07,28.18,51.88,55.82,117.78a34.28,34.28,0,0,1,2.31,19c-.53,3-1.66,6-.84,9s3.56,5,5.4,7.55c5.71,7.8,2.52,18.6,2.43,28.27-.06,7.29,1.8,14.44,2.81,21.67,0,0-85.47,3.32-97-4.5s-16.3-3.15-15.89-39S380,446.87,377,418.86" transform="translate(6.5 8.23)"/><path class="cls-8" d="M430.42,302.76c10,5.41,19.55,12.23,25.81,21.92,5.41,8.38,8,18.09,10.14,27.72,2.86,12.86,5.31,25.77,9,38.43q3.64,12.59,8.54,24.77c1.85,4.61,3.77,9.08,4.23,14.09a31.24,31.24,0,0,1-.19,7.67c-.41,2.53-1.27,5-1.26,7.59a10.19,10.19,0,0,0,2.23,6.19c1.26,1.66,2.83,3.08,4,4.8,2.44,3.6,2.93,7.95,2.85,12.2-.09,4.57-.79,9.09-.94,13.66a76.14,76.14,0,0,0,1.55,15.49c.46,2.58.92,5.16,1.29,7.76l1.45-1.9c-8.72.34-17.45.51-26.18.62-15.91.2-31.89.21-47.77-.89a103.33,103.33,0,0,1-17.65-2.27,25,25,0,0,1-2.84-.84c-.11,0-.75-.3-.36-.13l-.46-.21c-.33-.16-.64-.34-1-.53-2.06-1.3-4.15-2.52-6.29-3.71a16.82,16.82,0,0,1-4.39-3.1,12.75,12.75,0,0,1-2.82-5.43,51.12,51.12,0,0,1-1.49-11.08c-.34-6.33-.16-12.65-.2-19a79.36,79.36,0,0,0-.95-13.86,15.4,15.4,0,0,0-2.14-5.8c-.43-.65-.94-1.25-1.43-1.87-.11-.14-.23-.28-.34-.43.29.38-.07-.1-.14-.19-.25-.35-.49-.71-.72-1.09a23.08,23.08,0,0,1-2.43-7.34c-.47-2.37-.79-4.76-1-7.16-.21-1.9-3.21-1.92-3,0,.66,6.18,1.34,13,5.32,18.05.21.26.42.51.62.77l.17.21c.2.25-.21-.28,0,0s.22.29.32.44a8.93,8.93,0,0,1,.61,1,6.25,6.25,0,0,1,.46,1,32.36,32.36,0,0,1,1.5,9.12c.67,11.27-.53,22.63,1.14,33.85.75,5.05,2.36,9.77,6.66,12.82a61.77,61.77,0,0,0,5.57,3.25,44.35,44.35,0,0,0,5.68,3.23c4.86,1.9,10.41,2.34,15.56,2.84,15.81,1.54,31.8,1.55,47.67,1.45,10.6-.07,21.23-.17,31.83-.66l.5,0a1.52,1.52,0,0,0,1.44-1.9c-.76-5.36-2-10.66-2.5-16.06a79.07,79.07,0,0,1,.37-14.43c.38-4.41.66-8.93-.34-13.29a18.26,18.26,0,0,0-2.47-5.88c-1.19-1.81-2.77-3.28-4.11-5a7.88,7.88,0,0,1-1.67-6.51c.4-2.54,1.1-5,1.32-7.57a35.56,35.56,0,0,0-2-14.82c-1.61-4.55-3.63-9-5.3-13.5-1.5-4.1-2.89-8.22-4.19-12.39-4.09-13.15-6.85-26.59-9.74-40.05-2.13-10-4.5-20.12-9.58-29.06-5.57-9.8-14.21-17.16-23.78-22.9-1.53-.92-3.09-1.8-4.66-2.65s-3.21,1.67-1.51,2.59Z" transform="translate(6.5 8.23)"/><path class="cls-7" d="M294,477c9.86-9.05,33.86-24.15,45.76-30.29a39.13,39.13,0,0,1,15-4.91c11.54-2,23.09-4,34.73-5.32,3.38-.37,7.57-.29,9.2,2.69,1.19,2.18.28,5-1.47,6.79s-4.16,2.67-6.5,3.5a247.69,247.69,0,0,1-35.6,9.67c6.06-1.93,13.73-3.28,19.79-5.21,8.64-2.75,17.51-5.53,26.56-5.08,3.78.19,8.13,1.43,9.5,5,1,2.73-.2,5.93-2.32,7.95s-4.95,3.1-7.72,4.05c-9.8,3.36-15.68,5.7-26,7v-.68c8.07-.27,15.64-4.13,23.69-4.78,3-.25,6.52.22,8.15,2.76a5.75,5.75,0,0,1-.64,6.59,8.08,8.08,0,0,1-6.32,2.64" transform="translate(6.5 8.23)"/><path class="cls-8" d="M295.09,478c6.24-5.7,13.39-10.47,20.44-15.1,7.42-4.88,15-9.57,22.81-13.79,2.13-1.15,4.27-2.31,6.5-3.27a40.8,40.8,0,0,1,9-2.42q9.57-1.71,19.17-3.24c3.29-.52,6.59-1,9.89-1.45a86.85,86.85,0,0,1,8.66-1c1.92,0,4.52.05,5.71,1.82,1.42,2.11-.28,4.79-2,6.07-2.63,1.92-6.15,2.76-9.2,3.77q-5.11,1.71-10.31,3.18c-6.91,2-13.92,3.64-21,5l.8,2.89c6.26-2,12.75-3.06,19-5,7-2.12,13.92-4.52,21.23-5.14,4.05-.35,14.07-.88,14.07,5.45,0,3.08-2.49,5.35-5,6.69a66.53,66.53,0,0,1-9.38,3.51A102.76,102.76,0,0,1,375,471.24l1.5,1.5v-.68l-1.5,1.5c8.15-.34,15.61-4.16,23.69-4.78,2.59-.2,6.76,0,7.35,3.27.66,3.64-3,5.71-6.16,5.72a1.5,1.5,0,0,0,0,3,9.38,9.38,0,0,0,8.13-4.11,7,7,0,0,0-.84-8.57c-2.11-2.06-5.32-2.51-8.15-2.34a55,55,0,0,0-11.05,2.19c-4.26,1.18-8.52,2.43-13,2.62a1.52,1.52,0,0,0-1.5,1.5v.68a1.51,1.51,0,0,0,1.5,1.5,101.29,101.29,0,0,0,20.1-4.88,107.17,107.17,0,0,0,10.34-3.76,12.59,12.59,0,0,0,6.91-6.87,7.66,7.66,0,0,0-1.82-8.28c-2.16-2-5.15-2.79-8-3.08-8-.8-16.1,1.38-23.63,3.69-4,1.23-8,2.46-12.09,3.45s-8.08,1.87-12,3.12a1.5,1.5,0,0,0,.8,2.89q10.13-2,20.06-4.74,4.85-1.36,9.64-2.92a86.83,86.83,0,0,0,9.16-3.29,10.57,10.57,0,0,0,5.85-5.65,6.44,6.44,0,0,0-1.23-6.87c-1.7-1.74-4.27-2.23-6.61-2.27a62.89,62.89,0,0,0-9.28.93c-6.84.9-13.66,2-20.46,3.16-6.62,1.13-13.58,1.8-19.76,4.58-8.58,3.86-16.68,9.05-24.59,14.09-8.73,5.57-17.66,11.34-25.33,18.35-1.43,1.31.7,3.43,2.12,2.12Z" transform="translate(6.5 8.23)"/><path class="cls-7" d="M81.52,300.59c-24.14,19.47-23.29,52.32-30.14,72.91-7.45,22.44-9.63,37.11-17.1,65-3.86,14.39-11.1,56.79-4.84,70.3.93,2,2.13,4.05,2,6.27-.07,1.19-.53,2.34-.6,3.54-.17,2.93,2,5.43,4,7.58l16.4,17.57c3.18,3.41,6.43,6.87,10.55,9,4.69,2.48,15.9,10.49,21.18,11,59.41,5.57,125.68-7.75,184.41-18.36" transform="translate(6.5 8.23)"/><path class="cls-8" d="M80.46,299.53c-11.74,9.54-18.3,23.2-22.18,37.55-1.79,6.66-3.08,13.45-4.45,20.21A170.87,170.87,0,0,1,49,375.92c-4.78,14.84-8.14,30-11.84,45.17-1.8,7.33-3.9,14.6-5.56,22-1.29,5.73-2.34,11.51-3.25,17.31-1.08,6.89-1.95,13.82-2.46,20.78a108.62,108.62,0,0,0-.08,18.48,38.17,38.17,0,0,0,1.31,7.29,23.26,23.26,0,0,0,1.29,3.24,18,18,0,0,1,1.31,3.14,7.36,7.36,0,0,1-.15,3.58c-.95,4.66,1.89,7.93,4.87,11.13l10.87,11.65c3.29,3.53,6.47,7.25,10.08,10.45,2.71,2.4,5.82,4,8.89,5.92,2.91,1.78,5.79,3.61,8.76,5.29a32.3,32.3,0,0,0,8.52,3.77,41,41,0,0,0,5.76.58c2.32.19,4.66.34,7,.47q7.19.38,14.38.45c9.68.1,19.36-.2,29-.79,19.67-1.2,39.26-3.6,58.74-6.55,19.29-2.91,38.49-6.39,57.68-9.89l13.59-2.48c1.9-.34,1.1-3.23-.79-2.89-18.67,3.38-37.32,6.87-56,10-19.22,3.17-38.51,5.92-57.91,7.69a410.1,410.1,0,0,1-57.27,1.57q-3.37-.16-6.77-.41c-2.06-.15-4.21-.19-6.25-.54-2.88-.48-5.63-2.12-8.13-3.53-2.93-1.66-5.77-3.46-8.64-5.22s-6.1-3.42-8.75-5.82c-3.53-3.2-6.67-6.86-9.91-10.34l-10.7-11.46c-1.46-1.57-3.18-3.2-3.93-5.27s.45-4.23.27-6.43c-.24-3.13-2.25-5.72-3.06-8.67-1.4-5.11-1.45-10.59-1.35-15.84a191.08,191.08,0,0,1,1.55-20A275.8,275.8,0,0,1,37,434.2c4-15.46,7.3-31.12,11.64-46.5,1.91-6.78,4.37-13.4,6.06-20.23,1.57-6.31,2.69-12.72,4-19.08,2.91-13.76,6.88-27.84,16-38.89a56,56,0,0,1,7.92-7.85c1.5-1.21-.63-3.32-2.12-2.12Z" transform="translate(6.5 8.23)"/><path class="cls-7" d="M183.3,451.14c-17.14-7.35-36.77-4.37-55.22-7.08-2.32-.34-4.82-.88-6.36-2.66-2.51-2.92-.93-7.78,2.2-10s7.19-2.59,11-2.86c22.09-1.54,45.15-2.94,65.54,5.71,7.4,3.14,14.2,7.52,21,11.88l31.89,20.55,35.57,5.15" transform="translate(6.5 8.23)"/><path class="cls-8" d="M184.05,449.85c-9.19-3.9-19.09-5.05-29-5.55-5-.25-10-.35-15-.62-2.53-.14-5.06-.32-7.58-.58a38.87,38.87,0,0,1-6.78-1.05c-1.83-.53-3.49-1.65-3.71-3.68a6.51,6.51,0,0,1,1.74-4.83c3.12-3.45,8.74-3.36,13-3.65A278,278,0,0,1,167,429a97.56,97.56,0,0,1,29.33,5.21c9.91,3.58,18.7,9.55,27.51,15.22l14.05,9.06c4.75,3.06,9.43,6.29,14.27,9.19a6.88,6.88,0,0,0,2.77.71l5.74.83,27.25,4,.59.08c1.89.28,2.71-2.61.8-2.89l-25.23-3.65-6.75-1a17.3,17.3,0,0,1-3.45-.5c-.2-.08-.17-.13-.41-.28-1.27-.78-2.52-1.62-3.78-2.43l-7.34-4.73-14.69-9.46c-9-5.83-18-12-28-16.06-9.58-3.85-19.89-5.57-30.16-6.16-10.46-.59-20.95,0-31.39.69-4.69.32-9.89.28-14.07,2.73-3.38,2-5.73,6.06-4.85,10,1,4.73,6.16,5.66,10.23,6.19,5.1.67,10.23.95,15.37,1.15,10.25.41,20.66.48,30.64,3.13a53.9,53.9,0,0,1,7.13,2.42,1.56,1.56,0,0,0,2.05-.54,1.5,1.5,0,0,0-.54-2Z" transform="translate(6.5 8.23)"/><path class="cls-7" d="M181.82,450.52c-19.3-7.38-40.87-5.65-61.12-1.55-2.4.49-5.06,1.18-6.37,3.25a9,9,0,0,0-1,3.36c-.49,3-.81,6.29.88,8.8,2.46,3.67,7.71,3.77,12.13,3.64a181.69,181.69,0,0,1,46,4.54c3.76.86,7.72,2,10.33,4.82" transform="translate(6.5 8.23)"/><path class="cls-8" d="M182.22,449.07A86.41,86.41,0,0,0,150.71,444a135.44,135.44,0,0,0-16.1,1.18,147.51,147.51,0,0,0-15.52,2.66,10.21,10.21,0,0,0-5.41,2.82c-1.57,1.79-1.86,4.27-2.13,6.55-.54,4.54.6,9.13,5.11,11.12,4,1.79,8.72,1.22,13,1.18q8.7-.1,17.37.64a180.2,180.2,0,0,1,19.2,2.69c2.85.56,5.72,1.13,8.5,1.93a14.68,14.68,0,0,1,6.84,3.72c1.33,1.41,3.45-.72,2.12-2.12-3.14-3.3-7.64-4.46-11.93-5.43-5.25-1.17-10.56-2.11-15.89-2.82s-10.69-1.2-16.07-1.44c-5.21-.24-10.4-.05-15.6-.07-3.48,0-8.15-.43-9.44-4.32-.7-2.11-.36-4.51,0-6.65s1.3-3.68,3.53-4.46a45.78,45.78,0,0,1,6.78-1.49q3.69-.67,7.41-1.22A141.49,141.49,0,0,1,147.76,447c11.44-.4,22.91.88,33.66,4.95,1.81.69,2.59-2.21.8-2.89Z" transform="translate(6.5 8.23)"/><path class="cls-7" d="M175,473.76a222.49,222.49,0,0,0-32.53-1.94,41.41,41.41,0,0,0-9.1.85c-3,.71-6.06,2.34-7,5.24-1,3.27,1.24,6.83,4.25,8.47s6.56,1.84,10,2.11A174.52,174.52,0,0,1,180,496.21" transform="translate(6.5 8.23)"/><path class="cls-8" d="M175,472.26a225,225,0,0,0-24.87-1.91,121.9,121.9,0,0,0-12.24.14c-3.31.27-6.9.82-9.68,2.79a7.65,7.65,0,0,0-3.44,7.68,10.23,10.23,0,0,0,5.87,7.1c3.28,1.51,6.9,1.68,10.45,2q6,.48,12,1.39a175.79,175.79,0,0,1,26.59,6.24c1.84.58,2.63-2.31.79-2.9A176.78,176.78,0,0,0,159,489.41c-7.13-1.32-14.27-1.92-21.47-2.68-3.06-.32-6.43-1-8.5-3.51-1.82-2.19-2-5.11.24-7.05s5.82-2.48,8.79-2.7c3.74-.27,7.52-.21,11.26-.14A226.09,226.09,0,0,1,175,475.26a1.5,1.5,0,0,0,1.5-1.5,1.54,1.54,0,0,0-1.5-1.5Z" transform="translate(6.5 8.23)"/><path class="cls-7" d="M180.88,497a72.9,72.9,0,0,0-33.87-5.1c-2.66.23-5.63.82-7.07,3.06-1.93,3,.21,7.11,3,9.35,6.69,5.34,16,5.08,24.54,6.22,22.66,3.06,43.32,17.75,66.16,16.66,10.55-.51,21.06-4.42,31.46-2.57,0,0,11-.32,17-24.29s-5.49-31.47-5.49-31.47-8.92,10.88-43.91-15.54-42.32-22.57-42.32-22.57" transform="translate(6.5 8.23)"/><path class="cls-8" d="M181.28,495.59a74.34,74.34,0,0,0-33.37-5.24c-4.31.33-9.73,1.5-10.18,6.73-.42,4.81,3.85,8.67,7.74,10.65,4.36,2.22,9.24,2.95,14.05,3.47A121.68,121.68,0,0,1,175,513.51c10.26,2.49,20,6.69,30,10.07s20.29,5.91,30.84,5c5.85-.51,11.57-1.86,17.39-2.53a46.8,46.8,0,0,1,8.53-.31c1.19.08,2.43.44,3.6.4,2.83-.09,5.68-2.18,7.63-4,5.53-5.18,8.41-12.9,10.33-20,2.13-8,3.26-16.88.59-24.88a19.65,19.65,0,0,0-5.76-9.09c-.21-.18-.44-.36-.67-.52a1.51,1.51,0,0,0-1.82.23,3.44,3.44,0,0,1-.27.27c-.36.34.26-.14-.08.07l-.54.34q-.35.19-.72.36c-.15.08.32-.1-.1,0l-.48.17a11.53,11.53,0,0,1-1.12.29l-.59.11c-.18,0-.27,0,0,0l-.44.05c-6.69.6-13.6-2.48-19.53-5.62-12.53-6.62-23.21-16.12-35.11-23.75-6.28-4-13-8.17-20.21-10.29-1.86-.55-4.38-1.26-6.31-.57a3,3,0,0,0-.41.17c-1.71.89-.2,3.48,1.52,2.59-.22.12-.43.22-.11.07a2.84,2.84,0,0,1,.31-.06c-.6.16-.14,0,.11,0a14.66,14.66,0,0,1,1.48.07c-.29,0-.16,0,.12,0l.59.1,1.2.28c6.78,1.79,13.11,5.7,19.06,9.47,12,7.55,22.65,17,35.09,23.85,6.37,3.48,13.91,7,21.37,6.7,2.24-.1,5.71-.61,7.24-2.56l.07-.07-1.82.23c.41.27-.17-.18.14.1s.69.61,1,.94a13.18,13.18,0,0,1,1.21,1.44,20.21,20.21,0,0,1,1.48,2.43c3,5.74,3.08,12.69,2.16,18.94a66.81,66.81,0,0,1-3.79,14.24,37.07,37.07,0,0,1-4.89,9.06,18.68,18.68,0,0,1-4.46,4.3,13.84,13.84,0,0,1-1.89,1c.38-.17-.35.13-.49.18l-.66.19-.48.1c-.41.11.17,0,0,0a25.38,25.38,0,0,0-3.81-.42c-5.4-.32-10.79.6-16.1,1.49a79,79,0,0,1-15.86,1.54,66.36,66.36,0,0,1-14.34-2.21c-9.64-2.47-18.83-6.39-28.24-9.6a115.5,115.5,0,0,0-14.44-4.05c-4.68-.94-9.42-1.26-14.14-1.82-4.5-.54-9.14-1.41-13-3.89a10,10,0,0,1-4.3-4.95,3.71,3.71,0,0,1,1.68-4.74c1.95-1.07,4.43-1.1,6.6-1.23a72.7,72.7,0,0,1,7.95,0A71.06,71.06,0,0,1,173,495.88a74.21,74.21,0,0,1,7.52,2.6c1.79.72,2.57-2.18.8-2.89Z" transform="translate(6.5 8.23)"/><path class="cls-7" d="M423.41,477.91c-54-2.88-97.28-6-150.78-14.09C270,463.43,262,462.3,262,462.3s9.23,13.89,6.24,39.74c-1.31,11.23-12.42,27.52-29.49,29.19,60.73,12,120,31.79,181.53,38.65,15.81,1.77,46.87-3.38,60.11-12.19,16.46-11,21.5-33.44,18.77-53-1-7.23-2.87-14.38-2.81-21.67" transform="translate(6.5 8.23)"/><path class="cls-8" d="M423.41,476.41c-22.67-1.21-45.34-2.55-68-4.42q-33.3-2.78-66.41-7.29c-8.9-1.23-17.79-2.6-26.69-3.84-1.16-.17-2.5,1-1.69,2.2a27.6,27.6,0,0,1,2.42,4.91,59.45,59.45,0,0,1,3.7,15,78.38,78.38,0,0,1,.48,11.15,49.24,49.24,0,0,1-1.09,10.56,35,35,0,0,1-8.33,14.94,30.75,30.75,0,0,1-19.14,10.07c-1.55.16-2.2,2.59-.4,2.94,24.61,4.87,48.94,11,73.29,17s48.51,11.93,73.09,16.4c12,2.19,24.16,4.21,36.33,5.36,8.16.78,16.52,0,24.6-1.24a120,120,0,0,0,26.19-6.6,48.1,48.1,0,0,0,9.9-5,40.81,40.81,0,0,0,9.73-9.63c5.41-7.48,8.26-16.54,9.37-25.63a72.1,72.1,0,0,0,.29-14.24c-.44-5.68-1.68-11.24-2.54-16.86a60.79,60.79,0,0,1-.75-9.23,1.5,1.5,0,0,0-3,0c0,6.12,1.22,12.12,2.24,18.13a80.47,80.47,0,0,1,1.26,14.7c-.13,9.08-2,18.35-6.24,26.42a38.34,38.34,0,0,1-17.57,17c-7.7,3.64-16.21,5.72-24.55,7.26a119.05,119.05,0,0,1-25.33,2.21,147.89,147.89,0,0,1-14.84-1.6q-9.12-1.23-18.18-2.8c-24.2-4.14-48.11-9.81-71.95-15.69s-47.69-12-71.76-17c-2.93-.61-5.85-1.21-8.78-1.79l-.4,3c13.57-1.42,24.86-11.64,29.45-24.25a35.65,35.65,0,0,0,1.83-9.32,84.54,84.54,0,0,0,.14-12.43,66.17,66.17,0,0,0-3.52-17.89,33.66,33.66,0,0,0-3.35-7.29l-1.69,2.2c18.92,2.64,37.8,5.48,56.79,7.62,21.82,2.46,43.72,4.28,65.63,5.73,13.14.87,26.29,1.61,39.43,2.31,1.93.11,1.93-2.89,0-3Z" transform="translate(6.5 8.23)"/><path class="cls-8" d="M136.49,404.14a92.5,92.5,0,0,1,2.15,22.26c0,1.93,3,1.93,3,0a96.58,96.58,0,0,0-2.26-23.06c-.42-1.89-3.31-1.09-2.89.8Z" transform="translate(6.5 8.23)"/><path class="cls-8" d="M141.73,422.22c-.49-2.23.62-4.4,1.61-6.33s2.07-4,3.13-5.94q3.3-6.1,6.82-12.1a1.5,1.5,0,0,0-2.59-1.52q-3.88,6.62-7.5,13.38c-2.13,4-5.4,8.57-4.36,13.3.41,1.89,3.3,1.09,2.89-.79Z" transform="translate(6.5 8.23)"/><path class="cls-8" d="M141.9,422.82a99.54,99.54,0,0,0,12.51-5.18,1.52,1.52,0,0,0,.54-2.05,1.54,1.54,0,0,0-2.06-.54,93.92,93.92,0,0,1-11.78,4.88,1.53,1.53,0,0,0-1.05,1.84,1.51,1.51,0,0,0,1.84,1.05Z" transform="translate(6.5 8.23)"/><path class="cls-8" d="M82.18,302.76A86.46,86.46,0,0,1,101,317.91c6,6.42,10.67,13.84,15.49,21.14l8.78,13.31c1.06,1.6,3.66.1,2.59-1.52-5.23-7.92-10.32-15.94-15.73-23.73A93.6,93.6,0,0,0,95.18,308.3a89.6,89.6,0,0,0-11.49-8.13,1.5,1.5,0,0,0-1.51,2.59Z" transform="translate(6.5 8.23)"/><path class="cls-14" d="M243,532.93c-2.33-.29-3.86-3.42-4.49-5.09l4.89-1.4c.33.87.53,1.53,1.28,1.5,6.1-.26,7.15-6.26,10.68-19.22,6-22,5-40.55,3.09-42.68a1.34,1.34,0,0,0-2-.07l-3.46-1.4c.15-.15,5.25-4.65,8.85-3.16,5.8,2.41,6.21,27.62.34,49.17C258.27,525,253.1,534.21,243,532.93Z" transform="translate(6.5 8.23)"/><path class="cls-8" d="M377.52,405.1c-8.27-14.62-16.63-29.5-20.38-46-.43-1.88-3.32-1.08-2.9.8,3.82,16.77,12.3,31.91,20.69,46.75a1.5,1.5,0,0,0,2.59-1.52Z" transform="translate(6.5 8.23)"/><path class="cls-8" d="M367.25,350.52a187.35,187.35,0,0,0,2.31,24.11q1,5.94,2.3,11.81c.79,3.44,1.63,7,3.76,9.87,1.14,1.54,3.74.05,2.59-1.51-2-2.76-2.76-6.11-3.51-9.39q-1.31-5.76-2.25-11.58a182,182,0,0,1-2.2-23.31c-.06-1.92-3.06-1.93-3,0Z" transform="translate(6.5 8.23)"/><path class="cls-8" d="M427.76,476.43A71.74,71.74,0,0,1,449.43,475c1.92.16,1.91-2.84,0-3A74.65,74.65,0,0,0,427,473.53c-1.89.42-1.09,3.32.79,2.9Z" transform="translate(6.5 8.23)"/><path class="cls-8" d="M167.28,427.42c2.26,1.54,2.51,5.06,2.48,7.52a18.67,18.67,0,0,1-2.47,9,1.5,1.5,0,0,0,2.59,1.52,21.79,21.79,0,0,0,2.88-11.18c-.08-3.51-.89-7.37-4-9.47-1.6-1.09-3.1,1.51-1.52,2.59Z" transform="translate(6.5 8.23)"/><path class="cls-8" d="M173.63,427.07a36.48,36.48,0,0,1,.81,10.1,33.67,33.67,0,0,1-.63,4.81c-.23,1.1-.66,3-2.06,3.1-1.92.15-1.93,3.15,0,3,4.5-.33,5.14-5.46,5.53-9a39.22,39.22,0,0,0-.76-12.78c-.42-1.88-3.31-1.08-2.89.8Z" transform="translate(6.5 8.23)"/><path class="cls-8" d="M283.79,561.82a470.69,470.69,0,0,0,39.63,48.89q6,6.52,12.35,12.8a1.5,1.5,0,0,0,2.12-2.12,464.33,464.33,0,0,1-41.13-46.93q-5.33-7-10.38-14.15c-1.1-1.57-3.71-.07-2.59,1.51Z" transform="translate(6.5 8.23)"/><path class="cls-8" d="M259.11,555.22a205.68,205.68,0,0,1-61.92,45.9,203.17,203.17,0,0,1-20.41,8.49c-1.81.64-1,3.54.8,2.89a208.78,208.78,0,0,0,67.86-39.74,203.35,203.35,0,0,0,15.79-15.42c1.31-1.42-.81-3.55-2.12-2.12Z" transform="translate(6.5 8.23)"/><path class="cls-8" d="M420.56,481.8a124.86,124.86,0,0,1,10.94,45.51c.1,1.93,3.1,1.94,3,0a128.75,128.75,0,0,0-11.35-47c-.8-1.76-3.39-.23-2.59,1.51Z" transform="translate(6.5 8.23)"/><path class="cls-8" d="M400.57,481.24a52.93,52.93,0,0,1-8.14,16.85A1.5,1.5,0,1,0,395,499.6,54.94,54.94,0,0,0,403.46,482a1.5,1.5,0,0,0-2.89-.8Z" transform="translate(6.5 8.23)"/><path class="cls-8" d="M116,458.13q-22.94,8.34-45.16,18.52c-1.75.8-.23,3.39,1.52,2.59q21.84-10,44.44-18.22c1.8-.66,1-3.56-.8-2.89Z" transform="translate(6.5 8.23)"/><path class="cls-8" d="M121.09,471.42a123.12,123.12,0,0,0-17.61,14.36c-1.38,1.35.74,3.47,2.12,2.12a118,118,0,0,1,17-13.89c1.59-1.08.09-3.68-1.52-2.59Z" transform="translate(6.5 8.23)"/><path class="cls-8" d="M113.78,497.35c0,.32,0,.65,0,1l0,.49c0,.07-.06.61,0,.2a8.89,8.89,0,0,1-.43,1.85c0,.13-.09.27-.14.4l-.09.23c.07-.17.07-.18,0,0s-.28.59-.44.87a7.74,7.74,0,0,1-.52.83c-.09.14-.19.27-.28.4.22-.29-.11.12-.16.17a1.55,1.55,0,0,0,0,2.12,1.52,1.52,0,0,0,2.13,0,12.14,12.14,0,0,0,3-8.52,1.5,1.5,0,0,0-3,0Z" transform="translate(6.5 8.23)"/><path class="cls-8" d="M259.26,606.64l7.49,2.26a1.5,1.5,0,1,0,.8-2.89l-7.49-2.27a1.5,1.5,0,0,0-.8,2.9Z" transform="translate(6.5 8.23)"/></g></g></g></svg>